<?xml version="1.0" encoding="utf-8"?>
<!-- Generator: Adobe Illustrator 25.2.0, SVG Export Plug-In . SVG Version: 6.00 Build 0)  -->
<svg version="1.1" id="PRINT" xmlns="http://www.w3.org/2000/svg" xmlns:xlink="http://www.w3.org/1999/xlink" x="0px" y="0px"
	 viewBox="0 0 500 136.89" style="enable-background:new 0 0 500 136.89;" xml:space="preserve">
<style type="text/css">
	.st0{fill:#FFFFFF;}
	.st1{fill:#1B2954;stroke:#000000;stroke-width:0.75;stroke-miterlimit:10;}
	.st2{font-family:'Algerian';}
	.st3{font-size:60px;}
	.st4{fill:#FFC857;}
	.st5{fill:#6EB4C7;}
	.st6{fill:#1B2954;}
	.st7{fill:#EC9271;}
</style>
<g>
	
		<rect id="CUSTOM-background_00000050664249004879542480000018225295395235352471_" y="-188.58" class="st0" width="500" height="500"/>
	<g id="CUSTOM-group_00000049941572899408950390000012730911673940498356_">
		<text transform="matrix(1 0 0 1 33.5985 61.893)" class="st1 st2 st3">S.S. Education</text>
		<g>
			<g>
				<path class="st1" d="M77.31,99.73c-0.36-1.39-0.94-2.75-2.92-2.75c-1.64,0-2.2,1.2-2.2,2.29c0,1.45,0.92,2.18,2.67,3.09
					c2.52,1.3,3.61,2.27,3.61,4.26c0,2.21-1.91,3.88-4.62,3.88c-1.26,0-2.35-0.36-3.21-0.69c-0.17-0.59-0.42-2.02-0.57-3.15
					l0.65-0.17c0.42,1.41,1.34,3.23,3.53,3.23c1.51,0,2.44-1.05,2.44-2.41c0-1.62-0.86-2.27-2.71-3.28c-2.2-1.2-3.44-2.21-3.44-4.16
					c0-1.87,1.55-3.63,4.33-3.63c1.18,0,2.33,0.32,2.77,0.4c0.08,0.76,0.17,1.6,0.34,2.96L77.31,99.73z"/>
				<path class="st1" d="M81.63,110.48c-0.76,0-1.28-0.55-1.28-1.34c0-0.76,0.52-1.34,1.28-1.34s1.32,0.59,1.32,1.34
					C82.96,109.94,82.39,110.48,81.63,110.48z"/>
				<path class="st1" d="M92.13,99.73c-0.36-1.39-0.94-2.75-2.92-2.75c-1.64,0-2.2,1.2-2.2,2.29c0,1.45,0.92,2.18,2.67,3.09
					c2.52,1.3,3.61,2.27,3.61,4.26c0,2.21-1.91,3.88-4.62,3.88c-1.26,0-2.35-0.36-3.21-0.69c-0.17-0.59-0.42-2.02-0.57-3.15
					l0.65-0.17c0.42,1.41,1.34,3.23,3.53,3.23c1.51,0,2.44-1.05,2.44-2.41c0-1.62-0.86-2.27-2.71-3.28c-2.2-1.2-3.44-2.21-3.44-4.16
					c0-1.87,1.55-3.63,4.33-3.63c1.18,0,2.33,0.32,2.77,0.4c0.08,0.76,0.17,1.6,0.34,2.96L92.13,99.73z"/>
				<path class="st1" d="M96.46,110.48c-0.76,0-1.28-0.55-1.28-1.34c0-0.76,0.52-1.34,1.28-1.34s1.32,0.59,1.32,1.34
					C97.78,109.94,97.22,110.48,96.46,110.48z"/>
				<path class="st1" d="M117.16,106.83c-0.29,1.01-0.84,2.52-1.15,3.17c-0.61,0.12-2.25,0.5-3.84,0.5c-5.02,0-7.58-3.34-7.58-7.01
					c0-4.28,3.25-7.24,7.96-7.24c1.81,0,3.28,0.38,3.97,0.48c0.08,0.94,0.23,2.2,0.4,3.25l-0.65,0.15
					c-0.42-1.41-0.92-2.27-1.99-2.71c-0.55-0.25-1.41-0.4-2.2-0.4c-3.46,0-5.29,2.56-5.29,6.03c0,4.05,2.1,6.66,5.5,6.66
					c2.14,0,3.19-0.99,4.26-3.09L117.16,106.83z"/>
				<path class="st1" d="M123.53,100.72c2.62,0,4.58,2,4.58,4.7c0,3.4-2.52,5.02-4.58,5.02c-2.9,0-4.66-2.33-4.66-4.68
					C118.87,102.34,121.53,100.72,123.53,100.72z M123.28,101.44c-1.28,0-2.44,1.24-2.44,3.67c0,2.67,1.18,4.6,2.9,4.6
					c1.3,0,2.39-0.94,2.39-3.82C126.13,103.43,125.12,101.44,123.28,101.44z"/>
				<path class="st1" d="M141.12,110.19v-0.59c1.24-0.13,1.39-0.21,1.39-1.68v-3.51c0-1.49-0.5-2.44-1.81-2.44
					c-0.8,0-1.53,0.44-2.33,1.09c0.02,0.25,0.06,0.5,0.06,0.9v4.07c0,1.32,0.19,1.43,1.34,1.55v0.59h-4.49v-0.59
					c1.3-0.13,1.49-0.21,1.49-1.6v-3.61c0-1.55-0.48-2.42-1.76-2.42c-0.84,0-1.66,0.57-2.31,1.09v4.93c0,1.39,0.15,1.47,1.34,1.6
					v0.59h-4.51v-0.59c1.39-0.13,1.51-0.21,1.51-1.6v-4.35c0-1.34-0.08-1.43-1.26-1.64v-0.53c0.99-0.15,1.97-0.42,2.92-0.84
					c0,0.5,0,1.2,0,1.7c0.44-0.34,0.88-0.69,1.55-1.09c0.52-0.34,0.99-0.55,1.66-0.55c1.01,0,1.87,0.63,2.29,1.72
					c0.59-0.46,1.13-0.82,1.66-1.18c0.46-0.29,1.05-0.55,1.66-0.55c1.64,0,2.65,1.18,2.65,3.23v4.05c0,1.41,0.13,1.47,1.32,1.6v0.59
					H141.12z"/>
				<path class="st1" d="M146.56,101.41c0.99-0.15,2.08-0.5,3.04-0.9c0,0.5,0,1.18,0,1.68c0.06-0.04,1.74-1.01,1.83-1.05
					c0.5-0.27,0.94-0.42,1.22-0.42c2.31,0,3.72,1.93,3.72,4.01c0,3.19-2.52,5.21-5.27,5.71c-0.63-0.02-1.2-0.21-1.49-0.38v2.83
					c0,1.55,0.17,1.68,1.78,1.83v0.59h-4.98v-0.59c1.36-0.15,1.53-0.25,1.53-1.66v-9.55c0-1.26-0.04-1.34-1.39-1.53V101.41z
					 M149.61,108.59c0.48,0.48,1.3,0.82,1.99,0.82c1.83,0,3-1.53,3-3.88c0-2.27-1.32-3.55-2.81-3.55c-0.73,0-1.62,0.48-2.18,0.9
					V108.59z"/>
				<path class="st1" d="M168.09,109.71c-1.01,0.15-2.14,0.42-3.21,0.74c0-0.34,0-1.09,0-1.62c-1.13,0.94-2.06,1.62-3.21,1.62
					c-1.41,0-2.62-0.86-2.62-3.15v-4.07c0-1.13-0.17-1.26-0.69-1.36l-0.59-0.11v-0.55c0.9-0.04,2.29-0.25,3-0.38
					c-0.06,0.67-0.06,1.68-0.06,3.07v2.86c0,1.85,0.97,2.37,1.91,2.37c0.78,0,1.55-0.34,2.27-1.01v-4.89c0-1.13-0.25-1.28-0.97-1.39
					l-0.67-0.08v-0.55c1.34-0.06,2.81-0.29,3.3-0.38v7.03c0,1.05,0.17,1.2,0.97,1.24l0.59,0.02V109.71z"/>
				<path class="st1" d="M173.25,110.17c-0.36,0.19-0.69,0.27-0.9,0.27c-1.34,0-2.06-0.82-2.06-2.5v-6.11h-1.45l-0.08-0.25
					l0.57-0.61h0.97v-1.76c0.4-0.42,1.01-0.96,1.41-1.38l0.31,0.04c-0.04,0.88-0.06,2.1-0.06,3.11h2.39
					c0.19,0.21,0.13,0.67-0.13,0.86h-2.27v5.38c0,1.7,0.67,2.02,1.22,2.02c0.5,0,0.99-0.19,1.28-0.34l0.19,0.55L173.25,110.17z"/>
				<path class="st1" d="M183.23,108.41c-1.34,1.68-2.81,2.04-3.49,2.04c-2.56,0-4.12-2.1-4.12-4.51c0-1.43,0.5-2.75,1.36-3.67
					c0.88-0.99,2.04-1.53,3.13-1.53c1.83,0,3.21,1.58,3.21,3.25c-0.02,0.42-0.08,0.61-0.42,0.69c-0.42,0.08-3.11,0.27-5.61,0.36
					c-0.06,2.81,1.66,3.97,3.15,3.97c0.86,0,1.66-0.36,2.44-1.07L183.23,108.41z M179.62,101.52c-0.97,0-1.91,0.9-2.2,2.6
					c1.18,0,2.35,0,3.59-0.06c0.38,0,0.5-0.1,0.5-0.42C181.53,102.53,180.79,101.52,179.62,101.52z"/>
				<path class="st1" d="M189.42,110.19h-4.83v-0.59c1.32-0.13,1.45-0.23,1.45-1.6v-4.37c0-1.39-0.08-1.45-1.3-1.6v-0.52
					c1.03-0.17,1.97-0.42,2.96-0.86c0,0.69,0,1.62,0,2.31c0.73-1.09,1.62-2.25,2.67-2.25c0.78,0,1.22,0.48,1.22,1.01
					c0,0.48-0.34,0.95-0.71,1.16c-0.21,0.13-0.38,0.1-0.55-0.04c-0.31-0.31-0.57-0.53-0.94-0.53c-0.44,0-1.22,0.65-1.68,1.72v3.95
					c0,1.38,0.1,1.49,1.72,1.62V110.19z"/>
				<path class="st1" d="M208.62,99.84c-0.19-0.67-0.44-1.37-0.67-1.74c-0.34-0.57-0.55-0.71-1.7-0.71h-2.1v10.22
					c0,1.64,0.17,1.87,2.16,2v0.59h-6.11v-0.59c1.95-0.13,2.12-0.34,2.12-2V97.38h-1.91c-1.15,0-1.49,0.13-1.85,0.76
					c-0.25,0.42-0.42,0.92-0.69,1.7h-0.63c0.13-1.28,0.25-2.6,0.31-3.78h0.48c0.31,0.5,0.55,0.48,1.13,0.48h8.31
					c0.59,0,0.76-0.08,1.07-0.48h0.5c0,0.99,0.08,2.5,0.19,3.72L208.62,99.84z"/>
				<path class="st1" d="M215.42,110.19h-4.83v-0.59c1.32-0.13,1.45-0.23,1.45-1.6v-4.37c0-1.39-0.08-1.45-1.3-1.6v-0.52
					c1.03-0.17,1.97-0.42,2.96-0.86c0,0.69,0,1.62,0,2.31c0.73-1.09,1.62-2.25,2.67-2.25c0.78,0,1.22,0.48,1.22,1.01
					c0,0.48-0.34,0.95-0.71,1.16c-0.21,0.13-0.38,0.1-0.55-0.04c-0.31-0.31-0.57-0.53-0.94-0.53c-0.44,0-1.22,0.65-1.68,1.72v3.95
					c0,1.38,0.1,1.49,1.72,1.62V110.19z"/>
				<path class="st1" d="M225.14,110.44c-0.31,0-0.78-0.17-0.99-0.4c-0.27-0.27-0.4-0.57-0.5-0.94c-0.84,0.57-1.87,1.34-2.52,1.34
					c-1.49,0-2.56-1.24-2.56-2.58c0-1.03,0.57-1.7,1.72-2.1c1.28-0.44,2.86-0.99,3.32-1.36v-0.42c0-1.49-0.76-2.35-1.85-2.35
					c-0.48,0-0.78,0.23-0.99,0.48c-0.23,0.29-0.38,0.76-0.57,1.36c-0.1,0.34-0.29,0.48-0.61,0.48c-0.4,0-0.92-0.42-0.92-0.92
					c0-0.29,0.27-0.55,0.69-0.84c0.61-0.44,1.83-1.22,3.02-1.47c0.63,0,1.28,0.19,1.76,0.57c0.73,0.63,1.07,1.34,1.07,2.44v4.05
					c0,0.97,0.36,1.26,0.73,1.26c0.25,0,0.52-0.1,0.76-0.23l0.21,0.59L225.14,110.44z M223.61,105.13
					c-0.46,0.23-1.47,0.67-1.95,0.88c-0.8,0.36-1.28,0.76-1.28,1.53c0,1.11,0.84,1.62,1.51,1.62c0.55,0,1.3-0.34,1.72-0.76
					C223.61,107.42,223.61,106.12,223.61,105.13z"/>
				<path class="st1" d="M227.79,110.19v-0.59c1.32-0.13,1.47-0.23,1.47-1.66v-4.32c0-1.3-0.06-1.39-1.32-1.6v-0.5
					c1.09-0.19,2.08-0.46,2.98-0.84c0,0.88,0,1.76,0,2.64v4.62c0,1.43,0.15,1.53,1.51,1.66v0.59H227.79z M229.98,98.62
					c-0.59,0-1.11-0.52-1.11-1.11c0-0.67,0.52-1.16,1.13-1.16c0.59,0,1.07,0.48,1.07,1.16C231.07,98.1,230.58,98.62,229.98,98.62z"
					/>
				<path class="st1" d="M239.53,110.19v-0.59c1.22-0.13,1.34-0.27,1.34-1.7v-3.46c0-1.47-0.52-2.46-1.91-2.46
					c-0.86,0-1.68,0.5-2.33,1.09v4.91c0,1.45,0.13,1.49,1.36,1.62v0.59h-4.54v-0.59c1.39-0.15,1.51-0.23,1.51-1.62v-4.33
					c0-1.36-0.15-1.43-1.28-1.62v-0.55c1.03-0.17,2.06-0.44,2.94-0.84c0,0.48,0,1.15,0,1.66c0.42-0.29,0.88-0.61,1.43-0.96
					c0.59-0.38,1.13-0.63,1.74-0.63c1.68,0,2.73,1.24,2.73,3.28v3.99c0,1.43,0.13,1.49,1.34,1.62v0.59H239.53z"/>
				<path class="st1" d="M245.1,110.19v-0.59c1.32-0.13,1.47-0.23,1.47-1.66v-4.32c0-1.3-0.06-1.39-1.32-1.6v-0.5
					c1.09-0.19,2.08-0.46,2.98-0.84c0,0.88,0,1.76,0,2.64v4.62c0,1.43,0.15,1.53,1.51,1.66v0.59H245.1z M247.28,98.62
					c-0.59,0-1.11-0.52-1.11-1.11c0-0.67,0.52-1.16,1.13-1.16c0.59,0,1.07,0.48,1.07,1.16C248.37,98.1,247.89,98.62,247.28,98.62z"
					/>
				<path class="st1" d="M256.83,110.19v-0.59c1.22-0.13,1.34-0.27,1.34-1.7v-3.46c0-1.47-0.52-2.46-1.91-2.46
					c-0.86,0-1.68,0.5-2.33,1.09v4.91c0,1.45,0.13,1.49,1.37,1.62v0.59h-4.54v-0.59c1.39-0.15,1.51-0.23,1.51-1.62v-4.33
					c0-1.36-0.15-1.43-1.28-1.62v-0.55c1.03-0.17,2.06-0.44,2.94-0.84c0,0.48,0,1.15,0,1.66c0.42-0.29,0.88-0.61,1.43-0.96
					c0.59-0.38,1.13-0.63,1.74-0.63c1.68,0,2.73,1.24,2.73,3.28v3.99c0,1.43,0.13,1.49,1.34,1.62v0.59H256.83z"/>
				<path class="st1" d="M265.38,107.12c-0.5,0.4-0.69,0.8-0.69,1.05c0,0.38,0.36,0.8,1.3,0.8c0.78,0,1.66-0.02,2.35-0.02
					c1.34,0,3.06,0.44,3.06,2.52c0,2.18-2.58,4.24-5.38,4.24c-2.37,0-3.65-1.39-3.7-2.62c0-0.46,0.19-0.86,0.53-1.2
					c0.42-0.44,1.24-1.13,1.72-1.51c-0.76-0.21-1.3-0.69-1.58-1.13c-0.19-0.32-0.25-0.69-0.25-0.9c0.8-0.29,1.51-0.88,1.93-1.45
					L265.38,107.12z M266.39,107.33c-1.95,0-3.57-1.2-3.57-3.17c0-2.39,2.14-3.51,3.78-3.51c0.69,0,1.39,0.19,2.02,0.53
					c0.97,0,2.23-0.17,2.81-0.32l0.13,0.19c-0.13,0.34-0.46,0.92-0.78,1.11c-0.32,0-1.01-0.08-1.3-0.11
					c0.36,0.48,0.61,1.16,0.61,1.91C270.08,106.26,268.19,107.33,266.39,107.33z M266.87,110.44c-1.03,0-1.49,0.13-1.87,0.44
					c-0.59,0.48-1.01,1.11-1.01,1.72c0,1.15,1.2,2.02,2.81,2.02c1.99,0,3.13-1.03,3.13-2.37c0-0.71-0.34-1.28-0.92-1.53
					C268.49,110.48,267.75,110.44,266.87,110.44z M266.39,101.33c-0.95,0-1.79,0.86-1.79,2.52s0.84,2.81,2,2.81
					c0.92-0.04,1.74-0.82,1.74-2.52C268.34,102.51,267.56,101.33,266.39,101.33z"/>
				<path class="st1" d="M277.14,110.19v-0.59c1.32-0.13,1.47-0.23,1.47-1.66v-4.32c0-1.3-0.06-1.39-1.32-1.6v-0.5
					c1.09-0.19,2.08-0.46,2.98-0.84c0,0.88,0,1.76,0,2.64v4.62c0,1.43,0.15,1.53,1.51,1.66v0.59H277.14z M279.32,98.62
					c-0.59,0-1.11-0.52-1.11-1.11c0-0.67,0.53-1.16,1.13-1.16c0.59,0,1.07,0.48,1.07,1.16C280.42,98.1,279.93,98.62,279.32,98.62z"
					/>
				<path class="st1" d="M288.88,110.19v-0.59c1.22-0.13,1.34-0.27,1.34-1.7v-3.46c0-1.47-0.53-2.46-1.91-2.46
					c-0.86,0-1.68,0.5-2.33,1.09v4.91c0,1.45,0.13,1.49,1.36,1.62v0.59h-4.54v-0.59c1.39-0.15,1.51-0.23,1.51-1.62v-4.33
					c0-1.36-0.15-1.43-1.28-1.62v-0.55c1.03-0.17,2.06-0.44,2.94-0.84c0,0.48,0,1.15,0,1.66c0.42-0.29,0.88-0.61,1.43-0.96
					c0.59-0.38,1.13-0.63,1.74-0.63c1.68,0,2.73,1.24,2.73,3.28v3.99c0,1.43,0.13,1.49,1.34,1.62v0.59H288.88z"/>
				<path class="st1" d="M299.95,103.47c-0.38-1.22-0.92-2.06-2.21-2.06c-0.73,0-1.3,0.53-1.3,1.37c0,0.9,0.61,1.32,1.78,1.87
					c1.81,0.86,2.71,1.49,2.71,2.88c0,1.93-1.76,2.92-3.42,2.92c-1.09,0-2.06-0.34-2.5-0.59c-0.11-0.61-0.29-1.76-0.38-2.46
					l0.61-0.11c0.38,1.34,1.11,2.44,2.58,2.44c0.8,0,1.47-0.55,1.47-1.43c0-0.95-0.57-1.43-1.68-1.97c-1.47-0.71-2.67-1.39-2.67-2.9
					c0-1.53,1.3-2.71,3.28-2.71c0.88,0,1.6,0.21,2.02,0.27c0.06,0.5,0.21,1.83,0.32,2.33L299.95,103.47z"/>
				<path class="st1" d="M306.41,110.17c-0.36,0.19-0.69,0.27-0.9,0.27c-1.34,0-2.06-0.82-2.06-2.5v-6.11H302l-0.08-0.25l0.57-0.61
					h0.97v-1.76c0.4-0.42,1.01-0.96,1.41-1.38l0.32,0.04c-0.04,0.88-0.06,2.1-0.06,3.11h2.39c0.19,0.21,0.12,0.67-0.13,0.86h-2.27
					v5.38c0,1.7,0.67,2.02,1.22,2.02c0.5,0,0.99-0.19,1.28-0.34l0.19,0.55L306.41,110.17z"/>
				<path class="st1" d="M308.66,110.19v-0.59c1.32-0.13,1.47-0.23,1.47-1.66v-4.32c0-1.3-0.06-1.39-1.32-1.6v-0.5
					c1.09-0.19,2.08-0.46,2.98-0.84c0,0.88,0,1.76,0,2.64v4.62c0,1.43,0.15,1.53,1.51,1.66v0.59H308.66z M310.84,98.62
					c-0.59,0-1.11-0.52-1.11-1.11c0-0.67,0.52-1.16,1.13-1.16c0.59,0,1.07,0.48,1.07,1.16C311.94,98.1,311.45,98.62,310.84,98.62z"
					/>
				<path class="st1" d="M318.49,110.17c-0.36,0.19-0.69,0.27-0.9,0.27c-1.34,0-2.06-0.82-2.06-2.5v-6.11h-1.45l-0.08-0.25
					l0.57-0.61h0.97v-1.76c0.4-0.42,1.01-0.96,1.41-1.38l0.31,0.04c-0.04,0.88-0.06,2.1-0.06,3.11h2.39
					c0.19,0.21,0.13,0.67-0.12,0.86h-2.27v5.38c0,1.7,0.67,2.02,1.22,2.02c0.5,0,0.99-0.19,1.28-0.34l0.19,0.55L318.49,110.17z"/>
				<path class="st1" d="M330.92,109.71c-1.01,0.15-2.14,0.42-3.21,0.74c0-0.34,0-1.09,0-1.62c-1.13,0.94-2.06,1.62-3.21,1.62
					c-1.41,0-2.62-0.86-2.62-3.15v-4.07c0-1.13-0.17-1.26-0.69-1.36l-0.59-0.11v-0.55c0.9-0.04,2.29-0.25,3-0.38
					c-0.06,0.67-0.06,1.68-0.06,3.07v2.86c0,1.85,0.97,2.37,1.91,2.37c0.78,0,1.55-0.34,2.27-1.01v-4.89c0-1.13-0.25-1.28-0.97-1.39
					l-0.67-0.08v-0.55c1.34-0.06,2.81-0.29,3.3-0.38v7.03c0,1.05,0.17,1.2,0.96,1.24l0.59,0.02V109.71z"/>
				<path class="st1" d="M336.09,110.17c-0.36,0.19-0.69,0.27-0.9,0.27c-1.34,0-2.06-0.82-2.06-2.5v-6.11h-1.45l-0.08-0.25
					l0.57-0.61h0.97v-1.76c0.4-0.42,1.01-0.96,1.41-1.38l0.31,0.04c-0.04,0.88-0.06,2.1-0.06,3.11h2.39
					c0.19,0.21,0.13,0.67-0.12,0.86h-2.27v5.38c0,1.7,0.67,2.02,1.22,2.02c0.5,0,0.99-0.19,1.28-0.34l0.19,0.55L336.09,110.17z"/>
				<path class="st1" d="M346.06,108.41c-1.34,1.68-2.81,2.04-3.49,2.04c-2.56,0-4.12-2.1-4.12-4.51c0-1.43,0.5-2.75,1.37-3.67
					c0.88-0.99,2.04-1.53,3.13-1.53c1.83,0,3.21,1.58,3.21,3.25c-0.02,0.42-0.08,0.61-0.42,0.69c-0.42,0.08-3.11,0.27-5.61,0.36
					c-0.06,2.81,1.66,3.97,3.15,3.97c0.86,0,1.66-0.36,2.44-1.07L346.06,108.41z M342.45,101.52c-0.97,0-1.91,0.9-2.2,2.6
					c1.18,0,2.35,0,3.59-0.06c0.38,0,0.5-0.1,0.5-0.42C344.36,102.53,343.62,101.52,342.45,101.52z"/>
			</g>
		</g>
		<g id="CUSTOM-group">
			<rect x="368.49" y="98.32" class="st4" width="89.47" height="20.05"/>
			<polygon class="st5" points="378.8,76.11 379.81,91.65 429.08,92.41 428.33,76.24 			"/>
			<g>
				<g>
					<path class="st6" d="M38.67,86.26c-1.49,0-2.71-0.9-2.71-2s1.19-2,2.68-2h0.03c1.49,0,2.7,0.9,2.7,2S40.15,86.26,38.67,86.26z"
						/>
					<path class="st6" d="M360.72,86.26H51.2c-1.49,0-2.7-0.9-2.7-2s1.21-2,2.7-2h309.53c1.49,0,2.7,0.9,2.7,2
						S362.21,86.26,360.72,86.26z"/>
				</g>
				<g>
					<g>
						<g>
							<path class="st6" d="M460.02,85.02c0.02-2.7-1.01-5.24-2.9-7.16c-1.89-1.92-4.42-2.99-7.11-3.02l-71.16-0.6
								c-1.61-0.01-3.18,0.44-4.54,1.3l-11.16,7.12c-0.52,0.33-0.84,0.91-0.85,1.53c0,0.49,0.19,0.96,0.53,1.3
								c0.09,0.09,0.19,0.17,0.3,0.24l11.04,7.3c1.34,0.89,2.91,1.37,4.52,1.38l71.16,0.6C455.41,95.08,459.98,90.59,460.02,85.02
								L460.02,85.02z M440.27,91.28l-2.37-0.02l0.11-12.84l2.37,0.02L440.27,91.28z M431.87,91.2l0.11-12.84l2.37,0.02l-0.11,12.84
								L431.87,91.2z M428.3,78.33l-0.04,4.58l-44.9-0.38c-0.79-0.79-1.23-1.85-1.22-2.99c0-0.56,0.12-1.1,0.33-1.6L428.3,78.33z
								 M370.45,82.37l-0.03,3.79l-2.9-1.92L370.45,82.37z M376.2,89.98l-2.13-1.41l0.07-8.56l2.15-1.37
								c0.71-0.45,1.52-0.7,2.35-0.73c-0.11,0.52-0.17,1.05-0.18,1.6c-0.02,1.78,0.55,3.46,1.6,4.83c-1.07,1.35-1.67,3.02-1.69,4.81
								c0,0.54,0.05,1.08,0.15,1.6C377.7,90.71,376.9,90.45,376.2,89.98L376.2,89.98z M382.36,90.78c-0.2-0.5-0.31-1.05-0.3-1.6
								c0.01-1.14,0.47-2.2,1.27-2.97l1.65,0.01l43.25,0.37l-0.04,4.58L382.36,90.78z M449.88,91.36l-5.93-0.05l0.11-12.84
								l5.93,0.05c1.71,0.01,3.32,0.7,4.52,1.92c1.2,1.22,1.86,2.84,1.84,4.56C456.32,88.53,453.42,91.39,449.88,91.36z"/>
						</g>
					</g>
					<g>
						<g>
							<path class="st6" d="M422.29,118.93c-1.26-1.28-0.08-3.45,1.68-3.08c1.25,0.22,1.89,1.8,1.14,2.83
								C424.51,119.62,423.06,119.75,422.29,118.93L422.29,118.93z"/>
						</g>
						<path class="st6" d="M457.11,117.92l0.16-18.36c0-0.49-0.19-0.96-0.53-1.3c-0.34-0.35-0.81-0.54-1.29-0.55l-88.77-0.75
							c-1.01-0.01-1.84,0.81-1.85,1.82l-0.16,18.36c0,0.49,0.19,0.96,0.53,1.3c0.34,0.35,0.81,0.54,1.29,0.55l46.88,0.4
							c1.01,0.01,1.84-0.81,1.85-1.82c0.01-1.01-0.81-1.84-1.82-1.85l-45.05-0.38l0.12-14.69l4.01,0.03l-0.05,5.58
							c0,0.51,0.2,0.97,0.53,1.3c0.33,0.34,0.79,0.54,1.29,0.55c1.01,0.01,1.84-0.81,1.85-1.82l0.05-5.58l11.01,0.09l-0.05,5.58
							c0,0.51,0.2,0.97,0.53,1.3c0.33,0.34,0.79,0.54,1.29,0.55c1.01,0.01,1.84-0.81,1.85-1.82l0.05-5.58l11.01,0.09l-0.05,5.58
							c0,0.51,0.2,0.97,0.53,1.3c0.33,0.34,0.79,0.54,1.29,0.55c1.01,0.01,1.84-0.81,1.85-1.82l0.05-5.58l11.01,0.09l-0.05,5.58
							c0,0.51,0.2,0.97,0.53,1.3c0.33,0.33,0.79,0.54,1.29,0.55c1.01,0.01,1.84-0.81,1.85-1.82l0.05-5.58l11.01,0.09l-0.05,5.58
							c0,0.51,0.2,0.97,0.53,1.3c0.33,0.33,0.79,0.54,1.29,0.55c1.01,0.01,1.84-0.81,1.85-1.82l0.05-5.58l11.01,0.09l-0.05,5.58
							c0,0.51,0.2,0.97,0.53,1.3c0.33,0.34,0.79,0.54,1.29,0.55c1.01,0.01,1.84-0.81,1.85-1.82l0.05-5.58l4.01,0.03l-0.12,14.69
							l-20.9-0.18c-1.01-0.01-1.84,0.81-1.85,1.82c-0.01,1.01,0.81,1.84,1.82,1.85l22.74,0.19
							C456.27,119.75,457.1,118.94,457.11,117.92L457.11,117.92z"/>
					</g>
				</g>
			</g>
		</g>
	</g>
</g>
</svg>
